<?xml version="1.0" standalone="no"?>
<!DOCTYPE svg PUBLIC "-//W3C//DTD SVG 20010904//EN"
 "http://www.w3.org/TR/2001/REC-SVG-20010904/DTD/svg10.dtd">
<svg version="1.0" xmlns="http://www.w3.org/2000/svg"
 width="700.000000pt" height="700.000000pt" viewBox="0 0 700.000000 700.000000"
 preserveAspectRatio="xMidYMid meet">
<metadata>
Created by potrace 1.14, written by Peter Selinger 2001-2017
</metadata>
<g transform="translate(0.000000,700.000000) scale(0.100000,-0.100000)"
fill="#000000" stroke="none">
<path d="M2205 6405 c-198 -32 -356 -112 -489 -250 -90 -92 -91 -93 -143 -184
-48 -85 -87 -196 -103 -298 -7 -41 -11 -241 -12 -502 l0 -435 -209 -418 c-115
-230 -225 -456 -244 -502 -33 -81 -80 -231 -90 -288 -8 -46 -15 -82 -19 -103
-16 -81 -20 -260 -20 -1090 -1 -992 0 -1016 45 -1153 27 -82 81 -184 130 -248
49 -64 197 -204 215 -204 3 0 19 -10 36 -21 46 -33 176 -85 264 -105 75 -18
167 -19 1919 -19 1012 0 1861 3 1886 7 381 55 683 352 742 732 10 62 12 302
11 1021 -1 517 -4 959 -7 982 -19 165 -60 331 -115 468 -19 50 -109 238 -199
419 -188 376 -212 435 -239 571 -2 11 -7 31 -10 45 -3 14 -8 174 -10 355 -5
520 -11 569 -94 742 -117 243 -327 405 -615 474 -69 17 -2527 20 -2630 4z
m2518 -579 c84 -14 166 -78 208 -163 23 -47 23 -55 25 -353 2 -340 9 -489 24
-570 6 -30 13 -68 16 -85 27 -154 82 -292 264 -660 93 -187 180 -366 194 -398
27 -61 72 -232 81 -307 3 -25 5 -461 5 -970 l1 -925 -33 -65 c-38 -74 -104
-131 -176 -151 -35 -10 -340 -12 -1386 -11 -737 0 -1349 1 -1358 1 -15 1 -16
4 -2 36 36 88 40 184 38 1140 0 512 -4 959 -8 995 -4 36 -17 109 -27 163 -39
197 -82 299 -318 772 l-226 450 -1 433 c-1 348 1 440 12 473 38 110 132 186
244 198 74 8 2375 5 2423 -3z m-2868 -2021 c130 -266 162 -358 180 -530 10
-95 6 -1859 -4 -1893 -16 -53 -59 -119 -94 -146 -66 -49 -108 -64 -187 -64
-93 0 -146 23 -211 90 -85 89 -81 32 -80 1065 0 500 3 928 6 953 24 184 53
267 181 528 86 175 101 199 112 184 7 -9 51 -93 97 -187z"/>
<path d="M3105 5230 c-196 -76 -250 -328 -101 -475 87 -86 103 -89 496 -89
289 1 342 3 386 18 89 29 170 118 189 206 31 142 -47 289 -179 339 -54 20 -73
21 -399 20 -313 0 -346 -2 -392 -19z"/>
<path d="M3926 3484 c-243 -48 -439 -178 -570 -379 -104 -158 -140 -280 -141
-470 0 -144 5 -182 34 -270 97 -294 320 -506 616 -586 114 -31 326 -31 440 0
106 28 244 98 325 164 160 130 283 338 316 532 10 64 12 223 2 274 -5 25 -10
57 -13 71 -6 36 -50 159 -71 200 -118 233 -353 410 -619 466 -62 12 -251 12
-319 -2z m287 -600 c62 -32 102 -74 133 -139 92 -198 -64 -422 -285 -409 -160
10 -286 162 -266 323 25 200 239 315 418 225z"/>
</g>
</svg>
